<svg width="196" height="36" viewBox="0 0 196 36" fill="none" xmlns="http://www.w3.org/2000/svg">
<path d="M0.57669 35L3.8446 1.16752H15.3207L18.531 35H12.1297L11.6491 29.5407H7.57386L7.15095 35H0.57669ZM8.05443 24.139H11.1301L9.64994 6.93442H9.34237L8.05443 24.139ZM22.7216 35L19.0884 1.16752H25.7011L27.5658 22.5243L29.4688 1.16752H35.774L37.5809 22.5243L39.3879 1.16752H46.0775L42.3867 35H34.2746L32.583 18.7181L30.9682 35H22.7216ZM56.977 35.0192V29.656H46.9425V24.3697L53.3438 1.1483H63.878V24.0044H65.685V29.656H63.878V35.0192H56.977ZM52.9786 24.0044H56.977V6.95364L52.9786 24.0044ZM71.6441 35V23.8699L66.2424 1.16752H72.9513L74.8351 12.6244L76.719 1.16752H83.4086L78.0261 23.8699V35H71.6441ZM93.1546 35.3076C90.0661 35.3076 87.8363 34.5386 86.465 33.0008C85.1066 31.463 84.4274 29.0152 84.4274 25.6576V22.3513H91.117V26.5803C91.117 27.362 91.2323 27.9772 91.463 28.4257C91.7065 28.8614 92.123 29.0793 92.7125 29.0793C93.3276 29.0793 93.7505 28.8999 93.9812 28.5411C94.2247 28.1822 94.3464 27.5927 94.3464 26.7725C94.3464 25.7345 94.2439 24.8695 94.0389 24.1774C93.8338 23.4726 93.475 22.8062 92.9624 22.1782C92.4626 21.5375 91.7642 20.7942 90.8671 19.9484L87.8298 17.0649C85.5615 14.9248 84.4274 12.477 84.4274 9.72175C84.4274 6.8383 85.0938 4.64047 86.4266 3.12826C87.7722 1.61606 89.7137 0.859952 92.2511 0.859952C95.3524 0.859952 97.5503 1.68654 98.8446 3.33972C100.152 4.99289 100.805 7.5047 100.805 10.8751H93.9235V8.54915C93.9235 8.0878 93.789 7.72897 93.5199 7.47266C93.2635 7.21635 92.9111 7.0882 92.4626 7.0882C91.9243 7.0882 91.5271 7.24198 91.2708 7.54955C91.0273 7.84431 90.9055 8.22877 90.9055 8.70293C90.9055 9.1771 91.0337 9.68971 91.29 10.2408C91.5463 10.7918 92.0525 11.4262 92.8086 12.1438L96.7109 15.8923C97.4926 16.6356 98.2103 17.4238 98.8638 18.2568C99.5174 19.0769 100.043 20.0381 100.44 21.1402C100.837 22.2295 101.036 23.5623 101.036 25.1386C101.036 28.3168 100.447 30.8094 99.2675 32.6163C98.1013 34.4105 96.0637 35.3076 93.1546 35.3076ZM105.957 35L102.324 1.16752H108.937L110.801 22.5243L112.704 1.16752H119.01L120.817 22.5243L122.623 1.16752H129.313L125.622 35H117.51L115.819 18.7181L114.204 35H105.957ZM131.331 35V1.16752H144.864V7.70334H138.213V14.2968H144.595V20.6596H138.213V28.4065H145.307V35H131.331ZM146.633 35L149.901 1.16752H161.377L164.587 35H158.186L157.705 29.5407H153.63L153.207 35H146.633ZM154.111 24.139H157.186L155.706 6.93442H155.399L154.111 24.139ZM166.663 35V1.16752H177.044C178.774 1.16752 180.081 1.56479 180.965 2.35935C181.849 3.14108 182.439 4.2432 182.734 5.6657C183.041 7.07539 183.195 8.73497 183.195 10.6445C183.195 12.4899 182.958 13.9636 182.484 15.0657C182.023 16.1679 181.145 16.9304 179.85 17.3533C180.914 17.5711 181.657 18.103 182.08 18.9488C182.516 19.7818 182.734 20.8647 182.734 22.1975V35H176.063V21.7553C176.063 20.7686 175.858 20.1598 175.448 19.9292C175.051 19.6857 174.404 19.5639 173.507 19.5639V35H166.663ZM173.545 13.7009H175.179C176.115 13.7009 176.582 12.6821 176.582 10.6445C176.582 9.32448 176.48 8.45944 176.275 8.04935C176.07 7.63926 175.685 7.43421 175.121 7.43421H173.545V13.7009Z" fill="black"/>
<path d="M190.62 1C191.576 1 192.431 1.21176 193.184 1.63529C193.953 2.05882 194.549 2.6549 194.973 3.42353C195.396 4.17647 195.608 5.03922 195.608 6.01176C195.608 6.96863 195.396 7.82353 194.973 8.57647C194.549 9.32941 193.953 9.92549 193.184 10.3647C192.431 10.7882 191.576 11 190.62 11C189.663 11 188.8 10.7882 188.031 10.3647C187.278 9.92549 186.682 9.32941 186.243 8.57647C185.82 7.82353 185.608 6.96863 185.608 6.01176C185.608 5.03922 185.82 4.17647 186.243 3.42353C186.682 2.6549 187.278 2.05882 188.031 1.63529C188.8 1.21176 189.663 1 190.62 1ZM190.62 9.8C191.749 9.8 192.651 9.4549 193.325 8.76471C194.016 8.05882 194.361 7.14118 194.361 6.01176C194.361 4.86667 194.016 3.94902 193.325 3.25882C192.651 2.55294 191.749 2.2 190.62 2.2C189.49 2.2 188.588 2.55294 187.914 3.25882C187.239 3.94902 186.902 4.86667 186.902 6.01176C186.902 7.15686 187.239 8.07451 187.914 8.76471C188.588 9.4549 189.49 9.8 190.62 9.8ZM192.831 5.07059C192.831 5.41569 192.745 5.71373 192.573 5.96471C192.416 6.21569 192.188 6.40392 191.89 6.52941L193.114 8.45882H191.278L190.267 6.69412H190.125V8.45882H188.549V3.42353H191.02C191.569 3.42353 192.008 3.58039 192.337 3.89412C192.667 4.19216 192.831 4.58431 192.831 5.07059ZM190.102 5.51765H190.855C190.965 5.51765 191.059 5.48627 191.137 5.42353C191.216 5.36078 191.255 5.26667 191.255 5.14118C191.255 4.90588 191.122 4.78823 190.855 4.78823H190.102V5.51765Z" fill="black"/>
</svg>
